/* XPM */
static char *fef9b79cc0b04629c32180a81131495c[] = {
/* columns rows colors chars-per-pixel */
"64 64 256 2 ",
"   c #1A1C21",
".  c #2D2E31",
"X  c #2F3034",
"o  c #323335",
"O  c #333539",
"+  c #393B3E",
"@  c #2C2C2F",
"#  c #663202",
"$  c #6F3C07",
"%  c #6E3D0A",
"&  c #693604",
"*  c #703F0A",
"=  c #642F00",
"-  c #74440D",
";  c #7A4B0D",
":  c #75440A",
">  c #7F510E",
",  c #754612",
"<  c #774912",
"1  c #7A4B12",
"2  c #7A4E1A",
"3  c #7F5012",
"4  c #7E5119",
"5  c #785631",
"6  c #3C3D42",
"7  c #3F4144",
"8  c #434345",
"9  c #44464A",
"0  c #4B4B4D",
"q  c #494948",
"w  c #4C4E52",
"e  c #4E5054",
"r  c #535354",
"t  c #54565A",
"y  c #5B5B5D",
"u  c #585959",
"i  c #57544B",
"p  c #6E5F4A",
"a  c #5F605E",
"s  c #69655A",
"d  c #746C5A",
"f  c #79725B",
"g  c #73684C",
"h  c #5D5E63",
"j  c #5F6065",
"k  c #626365",
"l  c #6C6B64",
"z  c #64656A",
"x  c #67696D",
"c  c #696A6C",
"v  c #686764",
"b  c #736E62",
"n  c #787369",
"m  c #6C6E71",
"M  c #737374",
"N  c #78797A",
"B  c #6F7076",
"V  c #8A5A09",
"C  c #825414",
"Z  c #865A16",
"A  c #82551A",
"S  c #865A1B",
"D  c #8A5E1A",
"F  c #895A15",
"G  c #93630D",
"H  c #8D621C",
"J  c #966912",
"K  c #91661E",
"L  c #946A1D",
"P  c #986C17",
"I  c #9D721B",
"U  c #9E7013",
"Y  c #A0771D",
"T  c #A67A1D",
"R  c #855C22",
"E  c #895F22",
"W  c #815A25",
"Q  c #8D6423",
"!  c #8B672A",
"~  c #916621",
"^  c #956C24",
"/  c #996F26",
"(  c #956D29",
")  c #9A6F29",
"_  c #9B7324",
"`  c #9B742A",
"'  c #9E792D",
"]  c #98722A",
"[  c #8C6C33",
"{  c #866636",
"}  c #9E7A32",
"|  c #977636",
" . c #936E33",
".. c #A37B23",
"X. c #A3752D",
"o. c #A27C2E",
"O. c #AA7B2B",
"+. c #A27D32",
"@. c #AB7E34",
"#. c #856B42",
"$. c #887449",
"%. c #967A41",
"&. c #897755",
"*. c #967F59",
"=. c #847C64",
"-. c #857E72",
";. c #9D803B",
":. c #AA8225",
">. c #A6802A",
",. c #AA842A",
"<. c #AC882F",
"1. c #A68235",
"2. c #AA8535",
"3. c #AD8932",
"4. c #AA853A",
"5. c #AE8A3B",
"6. c #A5843B",
"7. c #B28336",
"8. c #B28E34",
"9. c #B28D3C",
"0. c #B88D3B",
"q. c #B39035",
"w. c #B5933D",
"e. c #BB933D",
"r. c #BB993A",
"t. c #C0983E",
"y. c #98834B",
"u. c #9B8455",
"i. c #9A8758",
"p. c #8D815F",
"a. c #A78948",
"s. c #B28E45",
"d. c #A8904D",
"f. c #B59343",
"g. c #BC9344",
"h. c #BC9C42",
"j. c #B99749",
"k. c #BB9A4C",
"l. c #B79946",
"z. c #AC9459",
"x. c #BA9954",
"c. c #B69A59",
"v. c #AB8F57",
"b. c #BEA148",
"n. c #BAA259",
"m. c #8C8265",
"M. c #8C846B",
"N. c #958866",
"B. c #888275",
"V. c #938B7A",
"C. c #9D9374",
"Z. c #989179",
"A. c #9C9067",
"S. c #A38E63",
"D. c #A79667",
"F. c #B29D64",
"G. c #A79977",
"H. c #B09F79",
"J. c #BAA569",
"K. c #ABA17C",
"L. c #B6A778",
"P. c #C59B45",
"I. c #C19F52",
"U. c #C2A446",
"Y. c #C2A44B",
"T. c #CEA44D",
"R. c #C6AA4C",
"E. c #C9AD4D",
"W. c #C8AB47",
"Q. c #CEB14E",
"!. c #C5A455",
"~. c #C6AB52",
"^. c #C9AE53",
"/. c #CAAD5B",
"(. c #C7A657",
"). c #D6AD52",
"_. c #DBAE53",
"`. c #CCB352",
"'. c #CDB359",
"]. c #D1B655",
"[. c #DBB255",
"{. c #D3B855",
"}. c #DBBA55",
"|. c #D4B35B",
" X c #DDB659",
".X c #D6BC5B",
"XX c #DCBB5B",
"oX c #D2AD4E",
"OX c #E8B755",
"+X c #EAB956",
"@X c #E2B759",
"#X c #E3BD5D",
"$X c #E5BA57",
"%X c #C7AE63",
"&X c #CCB264",
"*X c #CDB56C",
"=X c #D3B563",
"-X c #D6B868",
";X c #C9B67A",
":X c #CBB278",
">X c #E3BF64",
",X c #DCC25D",
"<X c #E5C15F",
"1X c #E9C15D",
"2X c #DBC262",
"3X c #DBC47A",
"4X c #E2C463",
"5X c #E3C56C",
"6X c #EACA6F",
"7X c #E9C669",
"8X c #7C7E84",
"9X c #7F8085",
"0X c #828487",
"qX c #8D8B85",
"wX c #838589",
"eX c #87898D",
"rX c #8A8B8E",
"tX c #979389",
"yX c #8B8D91",
"uX c #929394",
"iX c #95969A",
"pX c #9A9A9A",
"aX c #8D9094",
"sX c #A19781",
"dX c #A39981",
"fX c #A89F88",
"gX c #A39C90",
"hX c #AAA488",
"jX c #B4AB8B",
"kX c #B0A683",
"lX c #BCB188",
"zX c #A5A393",
"xX c #B5AE94",
"cX c #B9B39E",
"vX c #BCB497",
"bX c #9B9DA2",
"nX c #9FA0A6",
"mX c #A8A8A7",
"MX c #B6B1A3",
"NX c #BAB5A8",
"BX c #B5B6B9",
"VX c #AFAFAE",
"CX c #C6B78A",
"ZX c #C4BC9D",
"AX c #C4B997",
"SX c #C3BCA6",
"DX c #D8CB8A",
"FX c #D3C999",
"GX c #D5C991",
"HX c #CEC3A1",
"JX c #C6C1AB",
"KX c #D4CAA3",
"LX c #C7C3B9",
"PX c #D0C9B5",
"IX c #E0CF8A",
"UX c None",
/* pixels */
"UXUXUXUXUXUXUXUXUXUXUXUXUXUXUXUXUXUXUXUXUXUXUXUXUXUXUXUXUXUXUXUXUXUXUXUXUXUXUXUXUXUXUXUXUXUXUXUXUXUXUXUXUXUXUXUXUXUXUXUXUXUXUXUX",
"UXUXUXUXUXUXUXUXUXUXUXUXUXUXUXUXUXUXUXUXUXUXUXUXUXUXUXUXUXUXUXUXUXUXUXUXUXUXUXUXUXUXUXUXUXUXUXUXUXUXUXUXUXUXUXUXUXUXUXUXUXUXUXUX",
"UXUXUXUXUXUXUXUXUXUXUXUXUXUXUXUXUXUXUXUXUXUXUXUXUXUXUXUXUXUXUXUXUXUXUXUXUXUXUXUXUXUXUXUXUXUXUXUXUXUXUXUXUXUXUXUXUXUXUXUXUXUXUXUX",
"UXUXUXUXUXUXUXUXUXUXUXUXUXUXUXUXUXUXUXUXUXUXUXUXUXUXUXUXUXUXUXUXUXUXUXUXUXUXUXUXUXUXUXUXUXUXUXUXUXUXUXUXUXUXUXUXUXUXUXUXUXUXUXUX",
"UXUXUXUXUXUXUXUXUXUXUXUXUXUXUXUXUXUXUXUXUXUXUXUXUXUXUXUXUXUXUXUXUXUXUXUXUXUXUXUXUXUXUXUXUXUXUXUXUXUXUXUXUXUXUXUXUXUXUXUXUXUXUXUX",
"UXUXUXUXUXUXUXUXUXUXUXUXUXUXUXUXUXUXUXUXUXUXUXUXUXUXUXUXUXUXUXUXUXUXUXUXUXUXUXUXUXUXUXUXUXUXUXUXUXUXUXUXUXUXUXUXUXUXUXUXUXUXUXUX",
"UXUXUXUXUXUXUXUXUXUXUXUXUXUXUXUXUXUXUXUXUXUXUXUXUXUXUXUXUXUXUXUXUXUXUXUXUXUXUXUXUXUXUXUXUXUXUXUXUXUXUXUXUXUXUXUXUXUXUXUXUXUXUXUX",
"UXUXUXUXUXUXUXUXUXUXUXUXUXUXUXUXUXUXUXUXUXUXUXj z m N 8XeXiXbXmXBXBXBXBXBXBXBXBXBXUXUXUXUXUXUXUXUXUXUXUXUXUXUXUXUXUXUXUXUXUXUXUX",
"UXUXUXUXUXUXUXUXUXUXUXUXUXUXUXUXUXO 8 i d =.M.C.C.G.K.kXjXlXAXAXZXHXHXHXHXHXHXHXHXZXcXzXqXn i UXUXUXUXUXUXUXUXUXUXUXUXUXUXUXUXUX",
"UXUXUXUXUXUXUXUXUXUXUXUXUXUX. + i &.F.*X-X-X>X4X5X>X5X4X5X5X5X6X6X6X5X6X6X6X6X6X6X5X5X5X3X:XG.f 0 X UXUXUXUXUXUXUXUXUXUXUXUXUXUX",
"UXUXUXUXUXUXUXUXUXUXUXUX. 0 d z.!.(.!.(./.&X=X-X&X=X=X=X=X=X=X=X=X=X*X=X=X=X=X=X=X=X=X/././.|.!.c.m.u O UXUXUXUXUXUXUXUXUXUXUXUX",
"UXUXUXUXUXUXUXUXUXUXUXw d v.!.g.x././.!.!././.!.!.I.I.I.!.x.I.!.I.I.I.!.Y.x.!.!.(.&X&X&X%X/.(.j.g.!.c.f r UXUXUXUXUXUXUXUXUXUXUX",
"UXUXUXUXUXUXUXUXUXO l &.5.5.4.f.l.k.l.s.k.f.k.l.k.j.4.5.9.5.5.5.s.4.9.5.s.5.f.b.g.j.s.l.j.f.l.s.f.4.4.g.y.v 7 UXUXUXUXUXUXUXUXUX",
"UXUXUXUXUXUXUXUX0 n | >.] } 6.6.4.2.+.1.1.+.1.4.' ' ) ` _ _ ) ` ) ] _ _ ) ] ] _ 1.4.1.6.4.1.1.1.1.6.1.] >.6.d r UXUXUXUXUXUXUXUX",
"UXUXUXUXUXUXUXw n ^ L ~ ^ ' ] / _ ^ ] ' +.} 2.' H H H H H H H H K H H H K H H K ` 4.6.1.+.' } ' ' o.o./ K K ~ p h UXUXUXUXUXUXUX",
"UXUXUXUXUXUXw B.R H D D ] / ] / ^ ^ / ' ' ^ 1.L F D D D H F D D D D F D D D F F H ' ( ] +.} ' ` ' ` ^ ^ D H H D f k UXUXUXUXUXUX",
"UXUXUXUXUXUXqX! ~ H H D ^ ] ^ ] ^ ^ ] ' ^ H D Z C C F F F F V C F F F F F F F C F F D ~ } } } } ' ` Q ~ F D D K ~ -.y UXUXUXUXUX",
"UXUXUXUXUXrX[ L E F C Z ( ( ( Q D ' Q D D C C C C V C C C C C C C C C C C C C C C C C C S Z ) ~ H ] H ] K C F Q ~ R tXUXUXUXUXUX",
"UXUXUXUXN &.C > C ~ 1 H Q ( ^ H Z ~ 3 ; ; > C > C C C C C C C C > > C ; C ; C C C > C ; 1 ; S H H ~ ~ Q E C F F C C 5 iXUXUXUXUX",
"UXUXUXUXtX3 C ; ; C F S C Q ~ ~ ( 1 Z S ; ; ; ; $ C * C : ; : ; ; ; ; ; ; ; ; ; ; ; ; C E ~ C Q Q ( ~ C F A C C C C C -.M UXUXUX",
"UXUXUXuX#.D C ~ ( H ) ~ ~ ) ( ( ( ~ ^ ~ ) ^ H D D D H D D F V C C C C C D H H D D D ^ X.~ ~ ^ ~ Q } ) ~ F Q F D ~ F ~ W mXUXUXUX",
"UXUXUXgX) 2.X.X.:XLXMXMXxX6.@.@.X.@.s.J.AXcXcXcXMXMXcXcXcXjXG.a.X.4.J.vXcXMXcXcXcXcXcXMXjXL.s.X.O.4.X.O.@.X.X.X.) X.7.X.G.-.UXUX",
"UXUXrXv.@.0.7.O.@.:XiXeXaXS.0.e.I.H.pXuXyXrXrXrXrXrXrXrXrXrXaXuXtXpXuXyXrXyXrXrXrXeXeXrXrXaXuXZ.a.e.7.@.g.@.@.@.@.@.7.s.y.BXUXUX",
"UXUXmXP.g.P.P.P.P.P.S.k h b e.x.-.z j h h k k k k k k k k k k k k k k k k k k k k k k k h h a z x &.t.P.P.P.T.T.T.T.T.T.P.SXUXUX",
"UXh vXT.T.)._._._._.|.l w r N.a 9 0 e b i.c.x.x.x.x.x.x.x.M.0 w q 0 w a v.I.x.x.x.x.n.x.F.=.a 9 w w &.oX_.[.[.[.@X_.@X_.[.CXuXUX",
"UXeX:X_._._._.@X@X>X7XH.7 q w q 8 k J.#X+X1X#X+X+X+XOX+X3Xu 8 9 b r 8 9 N.+XOXOX$X+X#X+X+X1X3XZ.9 8 0 D.1X1X<X1X+X#X1X#X#X-XBXUX",
"UXnX-X).[. X X#X#X4X+XCXw 8 8 7 l -X+X>X$X@X@X$XOX XOX5XN 7 7 M.>XCXe 7 e J.OX@X@X@X@X$X+X#X1X6XK.9 8 a &X1X<X<X7X>X>X1X>X-XLXUX",
"UXNX|.). X XXX>X>X1X#X3XM v v M %X@X#X#XXXXX X X@X X$XCXz j B.|.OX+XlXz a B.]. X X@X XXX#X>X>X X7XfXz k C.XX<X<X#X#X#X#X#XXXPXUX",
"UXNX|.]. X XXXXX>X#X,X3XiXeXeXK.].#XXX XXXXX}.XX X}.4XMX9XyXJ.XX}.}.7XmXwXrX%X XXX}. XXXXX@XXX.X[.3XpX0XtX%X,X,X,X,X,X,X#XXXKXM ",
"UXSX].'.].|..X-X-X2X2XIXmXiXbX%XXXXX.X.XXXXX.X{..X}.3XVXiXzX`..X.X}.,XHXbXiXkX{..X{..X.XXX.X.X X].,XSXpXiX;X,X4X4X4X4X4X4X,XKXwX",
"w ZX].].{.]..X.X,X2X2XIXmXiXzX'..X.X,X.X,X,X.X,X.X{.GXnXiXjX{.,X.X.X{.IXmXiXhX].,X,X.X,X.X,X.X.X{.,XKXnXiXjX,X2X2X2X2X,X,X,XFXrX",
"r ZX`.`.].].].].{.].{.DXmXiXhX^.].].].].`.].'.'.{.{.FXnXiXK.`.{.`.{.`.3XVXuXzX/.{.'.'.].].`.{.{.{.{.GXnXuXhX`.]..X{..X].{.{.AXuX",
"r cXU.R.R.R.R.R.E.E.W.;XuX0XZ.b.E.W.R.R.E.W.R.E.W.W.lXyX9XA.W.W.E.E.W.&XpX9XV.b.E.W.E.R.R.R.W.W.`.`.;XyX9XC.R.`.~.E.E.E.E.`.AXaX",
"UXAXh.h.h.h.U.U.b.b.W.n.N m n l.U.h.h.h.h.h.h.r.h.r.F.M m p.r.h.r.h.h.c.N m n r.h.h.h.h.h.h.r.h.b.W.G.B m p.~.`.`.~.^.^.~.^.CXaX",
"UXcXh.r.0.r.r.U.b.R.E.~.n t y ;.r.q.8.q.q.q.q.q.q.q.d.v t s ,.q.q.q.q.p.t t $.8.8.8.q.q.q.q.q.r.r.R.n u y y.~.~.~.~.~.~.^.E.ZX9X",
"UXNXq.<.<.3.3.5.w.q.q.r.m.9 9 $.:.8.,.>.,.,.,.,.,.:.8.b 7 w $.:.,.:.w.s 7 w ;.:.,.,.:.,.:.,.<.<.r.n.u 8 r 6.r.w.w.w.w.w.l.r.ZXM ",
"UXMX1.>...,.,.,.,.3.,.:.z.q O 0 a.T :.:.....I Y Y Y T i.6 O i 1.U :.p.+ O s Y Y Y I ..>...,.,.,.r.b o O f <.3.<.<.<.<.<.3.<.SXUX",
"UXnXa.Y I I ......>.>...,.M.X . u d.T T U U J J J J G 3.l . O d 3.A.7 o 9 y.G J J J P I I ..,.l.N.O o r 5.<.3.1.3.3.3.<.q.d.LXUX",
"UXwXz...P P I _ _ ....>...s.m 8 7 a i._ J T J V G V V V d.y 8 8 v e 7 0 f G V V V G O.G G ,.n.B.9 7 e i.>.>.>.>.>.>.' ' 3.d.BXUX",
"UXu fXL K K K L L L ^ K ` ' +.v r e y b g %.| [ [ [ [ [ | M.u r e r r s %.! [ [ [ %.|  .$.=.v w r t &.] _ ] ' ' ' ' ' ' 1.G.uXUX",
"UXUXmX) ^ D L ^ ^ K H H Q ^ K  .B.m v v x m m m M m m M m x l c c c c c m m m M m M m m c z z m m #.K ~ D D ( }  .] ( } | NXUXUX",
"UXUXwX&.> 3 ; : : A ; A - H H D ^ A.tXaXeX9X9X9X9X9X9X9XeX9XeXqXM.tXaX9X9X9X9X9X9X9X9X9XwXwXqXm.! D Z ; ; ; S - * : 3 A 5 VXUXUX",
"UXUXUXgX1 ( 2 $ % 4 4 < - 4 E W 4 3 [ y.G.K.dXsXsXsXsXsXdXC.i.5 * A u.G.K.sXdXZ.dXZ.dXfXC.S.! 3 1 Q 1 < - 2 A , : < ! 2 Z.M UXUX",
"UXUXUXaX5 - & 1 , % , % < 4 W 4 2 1 1 $ 4 2 % * $ $ % $ $ & = # & # = & $ * * $ * $ ; 4 - - - - , E 4 < & - & * < & 1 2 mXUXUXUX",
"UXUXUXUXiX, 1 % - < 4 4 , A E E W - A S < - % % % % % % * * * * * * * * * * % % * * % * 4 4 * 4 A E R 2 2 3 , - % 2 - V.c UXUXUX",
"UXUXUXUXM =.; 2 2 S < S R ! ~ E E S 1 < , < < 1 1 1 1 1 < < 1 ; 1 1 1 1 < 1 1 1 1 1 1 1 < : S S A E E E E < S A 1 A 5 uXUXUXUXUX",
"UXUXUXUXUXeX{ ~ Q E 1 Q ( ( ( S S | 4 A A 4 4 C 3 3 4 3 > 4 4 4 4 3 3 3 3 4 3 4 3 4 3 4 S 4 ` ! S ~ ~ ( E 3 A E ~ W qXUXUXUXUXUX",
"UXUXUXUXUXUXqX .~ S K S ( | ] ] ] ` ' } ^ D D D D E D D D H D D D D E D R S H D S H Q ^ ] ^ ^ ] ( ( ~ ( H ~ Q ( ! B.r UXUXUXUXUX",
"UXUXUXUXUXUX8 -.! ^ Q K ' ' ` ' ] ] ' 1.1.] ;.L H L ! L K Q K K ~ ~ ~ K K K ~ ~ Q 1.` ' ` / / / ^ / ^ ) ^ ~ ~ Q b y UXUXUXUXUXUX",
"UXUXUXUXUXUXUX9 M ( _ ( +.1.+.} ' ' ' 1.4.1.s.' ^ ^ _ ^ ] / ] ^ ^ _ ^ ^ ] ^ ] / ` 5.2.2.o.` ` ` X.) ` ` ^ ^ ^ d r UXUXUXUXUXUXUX",
"UXUXUXUXUXUXUXUX8 n y.1.' 2.5.5.f.5.2.5.5.5.5.5.>.' ' >.o.o.o.+.>.' o.o.o.o.+.>.2.5.3.4.2.2.1.2.2.4.2.o.9.d.b q UXUXUXUXUXUXUXUX",
"UXUXUXUXUXUXUXUXUXUXk $.5.2.1.w.h.h.f.9.w.w.f.w.f.l.3.5.5.3.5.3.5.5.5.5.5.3.w.l.w.w.9.w.9.w.l.w.9.2.3.w.u.l O UXUXUXUXUXUXUXUXUX",
"UXUXUXUXUXUXUXUXUXUXUX9 s y.b.f.w.b.~.k.Y.!.~.Y.b.l.h.h.l.h.h.h.h.l.h.h.h.h.g.l.h.b.Y.Y.U.U.b.l.g.h.a.b w UXUXUXUXUXUXUXUXUXUXUX",
"UXUXUXUXUXUXUXUXUXUXUXUXUX9 g y.h.U.h.h.h.Y.Y.R.Y.R.b.R.R.Y.R.R.R.R.R.Y.Y.R.R.Y.^.^.~.Y.b.h.U.h.d.f r . UXUXUXUXUXUXUXUXUXUXUXUX",
"UXUXUXUXUXUXUXUXUXUXUXUXUXUXUXO q g i.b.^.^.E.Q.E.E.Q.Q.Q.Q.{.Q.{.{.{.].{.{.{.{.}.XX{.'.%XJ.A.b 8 @ UXUXUXUXUXUXUXUXUXUXUXUXUXUX",
"UXUXUXUXUXUXUXUXUXUXUXUXUXUXUXUXUX  X 8 s b =.M.M.C.C.G.fXhXjXvXAXZXZXZXHXZXZXZXZXcXxXgXB.j + UXUXUXUXUXUXUXUXUXUXUXUXUXUXUXUXUX",
"UXUXUXUXUXUXUXUXUXUXUXUXUXUXUXUXUXUXUXUXUXUXUX9 w t h j x B N 8XwXyXyXyXeXyXeXeXyXUXUXUXUXUXUXUXUXUXUXUXUXUXUXUXUXUXUXUXUXUXUXUX",
"UXUXUXUXUXUXUXUXUXUXUXUXUXUXUXUXUXUXUXUXUXUXUXUXUXUXUXUXUXUXUXUXUXUXUXUXUXUXUXUXUXUXUXUXUXUXUXUXUXUXUXUXUXUXUXUXUXUXUXUXUXUXUXUX",
"UXUXUXUXUXUXUXUXUXUXUXUXUXUXUXUXUXUXUXUXUXUXUXUXUXUXUXUXUXUXUXUXUXUXUXUXUXUXUXUXUXUXUXUXUXUXUXUXUXUXUXUXUXUXUXUXUXUXUXUXUXUXUXUX",
"UXUXUXUXUXUXUXUXUXUXUXUXUXUXUXUXUXUXUXUXUXUXUXUXUXUXUXUXUXUXUXUXUXUXUXUXUXUXUXUXUXUXUXUXUXUXUXUXUXUXUXUXUXUXUXUXUXUXUXUXUXUXUXUX",
"UXUXUXUXUXUXUXUXUXUXUXUXUXUXUXUXUXUXUXUXUXUXUXUXUXUXUXUXUXUXUXUXUXUXUXUXUXUXUXUXUXUXUXUXUXUXUXUXUXUXUXUXUXUXUXUXUXUXUXUXUXUXUXUX",
"UXUXUXUXUXUXUXUXUXUXUXUXUXUXUXUXUXUXUXUXUXUXUXUXUXUXUXUXUXUXUXUXUXUXUXUXUXUXUXUXUXUXUXUXUXUXUXUXUXUXUXUXUXUXUXUXUXUXUXUXUXUXUXUX",
"UXUXUXUXUXUXUXUXUXUXUXUXUXUXUXUXUXUXUXUXUXUXUXUXUXUXUXUXUXUXUXUXUXUXUXUXUXUXUXUXUXUXUXUXUXUXUXUXUXUXUXUXUXUXUXUXUXUXUXUXUXUXUXUX",
"UXUXUXUXUXUXUXUXUXUXUXUXUXUXUXUXUXUXUXUXUXUXUXUXUXUXUXUXUXUXUXUXUXUXUXUXUXUXUXUXUXUXUXUXUXUXUXUXUXUXUXUXUXUXUXUXUXUXUXUXUXUXUXUX"
};
