/* XPM */
static char *d732e29605d043a9a23228c48b68bba5[] = {
/* columns rows colors chars-per-pixel */
"16 16 172 2 ",
"   c #433C29",
".  c #79480C",
"X  c #7A490C",
"o  c #7A4A0F",
"O  c #7C4C0E",
"+  c #7C4C0F",
"@  c #7D4D0F",
"#  c #49422D",
"$  c #4B4432",
"%  c #504733",
"&  c #685235",
"*  c #6C5534",
"=  c #6D5536",
"-  c #775F33",
";  c #715835",
":  c #745D34",
">  c #755F37",
",  c #7A612E",
"<  c #786237",
"1  c #5A5B5B",
"2  c #655E4B",
"3  c #635D4C",
"4  c #605C4F",
"5  c #736442",
"6  c #786642",
"7  c #7B6B44",
"8  c #78644D",
"9  c #71694F",
"0  c #7B6852",
"q  c #7B6853",
"w  c #706D5E",
"e  c #7A735E",
"r  c #7A7360",
"t  c #804F0B",
"y  c #83530E",
"u  c #84540F",
"i  c #855616",
"p  c #8A5B14",
"a  c #8F5E15",
"s  c #875A1A",
"d  c #86591C",
"f  c #885818",
"g  c #895A1A",
"h  c #8C5F19",
"j  c #895E1F",
"k  c #8F621B",
"l  c #91651F",
"z  c #976F1F",
"x  c #805620",
"c  c #885B21",
"v  c #8B5F25",
"b  c #8B6223",
"n  c #8E6A24",
"m  c #906520",
"M  c #966F22",
"N  c #976D24",
"B  c #986E24",
"V  c #996F25",
"C  c #9B7227",
"Z  c #9E7629",
"A  c #9E7729",
"S  c #9F782A",
"D  c #9E7D30",
"F  c #A57920",
"G  c #A77D26",
"H  c #A07A2B",
"J  c #AC7D2E",
"K  c #A17A37",
"L  c #806748",
"P  c #8E7A42",
"I  c #937A41",
"U  c #907F4E",
"Y  c #9B7E4B",
"T  c #897952",
"R  c #867458",
"E  c #87775C",
"W  c #867B59",
"Q  c #847A5E",
"!  c #89785F",
"~  c #917950",
"^  c #807160",
"/  c #817260",
"(  c #807363",
")  c #817363",
"_  c #867F68",
"`  c #AF882F",
"'  c #A58135",
"]  c #A88433",
"[  c #AC8532",
"{  c #AB8334",
"}  c #A88336",
"|  c #AB8435",
" . c #AB8637",
".. c #AE8535",
"X. c #AF8634",
"o. c #AC8838",
"O. c #B08A38",
"+. c #B18D39",
"@. c #B5883D",
"#. c #B5893E",
"$. c #BA9737",
"%. c #BC9936",
"&. c #B99738",
"*. c #C09C38",
"=. c #C19E3B",
"-. c #9D894E",
";. c #9F8A51",
":. c #9F8A55",
">. c #928058",
",. c #998A5A",
"<. c #9D8D59",
"1. c #9E8D5F",
"2. c #AF9344",
"3. c #B39A4F",
"4. c #AD945B",
"5. c #AC975F",
"6. c #B9A04F",
"7. c #BAA053",
"8. c #BFA659",
"9. c #8D8466",
"0. c #8F816B",
"q. c #8B806D",
"w. c #8D806C",
"e. c #8D816E",
"r. c #999177",
"t. c #A28A60",
"y. c #A59366",
"u. c #A89661",
"i. c #A49C7E",
"p. c #BCA363",
"a. c #B5A46D",
"s. c #B5A56F",
"d. c #BDAF77",
"f. c #BAAB78",
"g. c #CAAC47",
"h. c #C3AB5F",
"j. c #C4AC5E",
"k. c #C6AE5F",
"l. c #CFAB5C",
"z. c #DABD57",
"x. c #DCBD55",
"c. c #DDBE56",
"v. c #D7B05A",
"b. c #DBB259",
"n. c #DAB75E",
"m. c #DCBE59",
"M. c #ECBE59",
"N. c #C2A964",
"B. c #CBAC62",
"V. c #C9AE68",
"C. c #CEB46D",
"Z. c #D7BF6B",
"A. c #C3B378",
"S. c #C6B67A",
"D. c #D3B972",
"F. c #D3BA73",
"G. c #D5BA73",
"H. c #D4BF70",
"J. c #DFC057",
"K. c #E3C659",
"L. c #F2C860",
"P. c #A49C80",
"I. c #ADA68B",
"U. c #B0A785",
"Y. c #B5AD90",
"T. c #B4AC92",
"R. c #B9B092",
"E. c #BFB59B",
"W. c #C0B281",
"Q. c #C8C0A6",
"!. c #CAC2A9",
"~. c None",
/* pixels */
"~.~.~.~.~.~.~.~.~.~.~.~.~.~.~.~.",
"~.~.~.~.~._ r.T.Q.!.E.~.~.~.~.~.",
"~.~.~.$ :.N.V.C.D.G.G.u.% ~.~.~.",
"~.~.: { { ] C B B B '  .X.< ~.~.",
"~.* a l h u y O t t u k m p ; ~.",
"~.@.t.Y ~ q.w.! R 0.w.E K J @.~.",
">.M.B.1 1.v.l.r w 4.b.p.e n.L.y.",
"s.x.H.I.m.x.S.f.Z.U.z.J.W.d.K.A.",
"u.=.6.Q &.%.;.U 2.W $.*.,.<.g.s.",
"6 F G 5 7 B n 2 4 , z I 2 D ` T ",
"~.c + d L / e q 8 / ) 0 x + v ~.",
"~.& s b s + X X . . @ i c f * ~.",
"~.~.> O.+.o.H S S S ] [ X.< ~.~.",
"~.~.~.  P 3.7.8.j.B.j.-.# ~.~.~.",
"~.~.~.~.~.9 9.i.Y.R.P.~.~.~.~.~.",
"~.~.~.~.~.~.~.~.~.~.~.~.~.~.~.~."
};
