/* XPM */
static char *fe50dab689d340e5f2bfc8f67c595bd4[] = {
/* columns rows colors chars-per-pixel */
"32 32 256 2 ",
"   c #3E3A2F",
".  c #393836",
"X  c #3D3C3A",
"o  c #353536",
"O  c #6F3D06",
"+  c #703D06",
"@  c #713F0A",
"#  c #7A4806",
"$  c #73420C",
"%  c #7A4A0B",
"&  c #7F500E",
"*  c #744512",
"=  c #7A4C14",
"-  c #7D4F19",
";  c #7F5110",
":  c #5B523D",
">  c #794F23",
",  c #63573B",
"<  c #383C43",
"1  c #454443",
"2  c #4A4945",
"3  c #42464E",
"4  c #4A4B4D",
"5  c #534E41",
"6  c #5A5444",
"7  c #4A4E55",
"8  c #4E5056",
"9  c #515254",
"0  c #5D5A52",
"q  c #52555A",
"w  c #55595F",
"e  c #5B5B5C",
"r  c #5A5754",
"t  c #665E49",
"y  c #605D58",
"u  c #6F644B",
"i  c #736845",
"p  c #7F6D43",
"a  c #7A6D4B",
"s  c #766A4C",
"d  c #6A6251",
"f  c #63625B",
"g  c #6B655F",
"h  c #7E6C58",
"j  c #686762",
"k  c #6C6A62",
"l  c #616365",
"z  c #736D65",
"x  c #7F7862",
"c  c #7A776B",
"v  c #7C786D",
"b  c #787468",
"n  c #797770",
"m  c #7C7A74",
"M  c #76797D",
"N  c #7B7C7B",
"B  c #757471",
"V  c #81510E",
"C  c #835614",
"Z  c #855916",
"A  c #8A5C16",
"S  c #825619",
"D  c #85591A",
"F  c #895D1A",
"G  c #8D6017",
"H  c #87611E",
"J  c #8C611B",
"K  c #966816",
"L  c #9B6E12",
"P  c #93671A",
"I  c #996E1F",
"U  c #9D7117",
"Y  c #9F7419",
"T  c #A2771E",
"R  c #A47A1E",
"E  c #835726",
"W  c #895F23",
"Q  c #865D27",
"!  c #845F35",
"~  c #8E6422",
"^  c #8E6924",
"/  c #8F6D2D",
"(  c #89622D",
")  c #926622",
"_  c #936A24",
"`  c #956C2A",
"'  c #9A7224",
"]  c #97712B",
"[  c #9B742A",
"{  c #9E792E",
"}  c #8D6D3B",
"|  c #866937",
" . c #8E743D",
".. c #9F7635",
"X. c #9F7A31",
"o. c #94723A",
"O. c #997D38",
"+. c #A67E26",
"@. c #A2762C",
"#. c #A37E2C",
"$. c #A47D32",
"%. c #866741",
"&. c #876945",
"*. c #886A46",
"=. c #84734D",
"-. c #8D754B",
";. c #927544",
":. c #91754A",
">. c #927B4A",
",. c #9F7F4C",
"<. c #846F57",
"1. c #837056",
"2. c #887255",
"3. c #87765A",
"4. c #887C59",
"5. c #867B5B",
"6. c #947F51",
"7. c #8F7E62",
"8. c #837D6E",
"9. c #837C66",
"0. c #847F73",
"q. c #9B813D",
"w. c #AB8020",
"e. c #AB852A",
"r. c #AE892F",
"t. c #B48C2C",
"y. c #A48133",
"u. c #A88432",
"i. c #AD8935",
"p. c #AB8539",
"a. c #AE8B3B",
"s. c #A2823A",
"d. c #B28C35",
"f. c #B18D3B",
"g. c #BD8E3B",
"h. c #B69033",
"j. c #B3923D",
"k. c #BA993E",
"l. c #C2963F",
"z. c #9C854A",
"x. c #968453",
"c. c #94835D",
"v. c #9F8458",
"b. c #A48245",
"n. c #A38C4C",
"m. c #B08E41",
"M. c #B59444",
"N. c #BD9142",
"B. c #BC9D45",
"V. c #BC9E4A",
"C. c #A58B54",
"Z. c #A88B54",
"A. c #A1875D",
"S. c #A18A5C",
"D. c #A88E5F",
"F. c #A29059",
"G. c #AD9358",
"H. c #AB9557",
"J. c #B3975B",
"K. c #BDA048",
"L. c #BEA556",
"P. c #87816E",
"I. c #978867",
"U. c #868171",
"Y. c #87857C",
"T. c #898472",
"R. c #96907B",
"E. c #99927D",
"W. c #A48E69",
"Q. c #A79064",
"!. c #AB9762",
"~. c #A3916F",
"^. c #A89E7F",
"/. c #A99C76",
"(. c #B4A061",
"). c #BDA96B",
"_. c #B8A46A",
"`. c #ABA17D",
"'. c #B7AA73",
"]. c #B9AA72",
"[. c #B4A078",
"{. c #C49E58",
"}. c #C3A445",
"|. c #C5A549",
" X c #C7AA4B",
".X c #C9AB4C",
"XX c #D9AA4D",
"oX c #C4A454",
"OX c #CCA455",
"+X c #C9AF52",
"@X c #C3A35B",
"#X c #CDAC59",
"$X c #C1AB5E",
"%X c #D0AF5C",
"&X c #D2A854",
"*X c #CCB155",
"=X c #D4B757",
"-X c #DDB357",
";X c #D5BB56",
":X c #DFBD57",
">X c #D2B25E",
",X c #D4BB5A",
"<X c #DBBC5A",
"1X c #E5B756",
"2X c #E5BD55",
"3X c #E5BB5A",
"4X c #C6AF66",
"5X c #CAAF64",
"6X c #D3B561",
"7X c #D6B867",
"8X c #DCBC63",
"9X c #DDBD69",
"0X c #D4B96D",
"qX c #C3B172",
"wX c #C9B777",
"eX c #C9B778",
"rX c #CBB87A",
"tX c #D2B471",
"yX c #DCC15F",
"uX c #E5C15E",
"iX c #EBC35E",
"pX c #D6C271",
"aX c #D6C478",
"sX c #DAC477",
"dX c #E2C563",
"fX c #EDC866",
"gX c #E7C66D",
"hX c #E0C178",
"jX c #767A81",
"kX c #7B7F83",
"lX c #7E8182",
"zX c #898881",
"xX c #8C8C89",
"cX c #989385",
"vX c #8F9299",
"bX c #9A9892",
"nX c #97999E",
"mX c #989898",
"MX c #A29F8F",
"NX c #A29C85",
"BX c #A19E96",
"VX c #A4A08E",
"CX c #ABA48B",
"ZX c #A4A29A",
"AX c #B8B39D",
"SX c #A1A3A7",
"DX c #A0A3A8",
"FX c #AAA9A2",
"GX c #B9B7B1",
"HX c #BCBAB4",
"JX c #C8B681",
"KX c #C7B886",
"LX c #D2BF82",
"PX c #D8C387",
"IX c #DAC689",
"UX c None",
/* pixels */
"UXUXUXUXUXUXUXUXUXUXUXUXUXUXUXUXUXUXUXUXUXUXUXUXUXUXUXUXUXUXUXUX",
"UXUXUXUXUXUXUXUXUXUXUXUXUXUXUXUXUXUXUXUXUXUXUXUXUXUXUXUXUXUXUXUX",
"UXUXUXUXUXUXUXUXUXUXUXUXUXUXUXUXUXUXUXUXUXUXUXUXUXUXUXUXUXUXUXUX",
"UXUXUXUXUXUXUXUXUXUXUXk n zXbXFXHXHXHXHXGXUXUXUXUXUXUXUXUXUXUXUX",
"UXUXUXUXUXUXUXUX5 4.!._.).qXeXPXIXIXIXIXPXrX/.d UXUXUXUXUXUXUXUX",
"UXUXUXUXUXUXt C.@X#X>X6X6X#X#X#X#X#X#X%X>X6X6X#XG.u UXUXUXUXUXUX",
"UXUXUXUXX >.p.f.m.a.m.m.p.$.$.$.$.$.$.p.m.m.m.a.f.f.>.X UXUXUXUX",
"UXUXUX1 } P ' ] ' [ X.[ G F G G G J F F ] X.{ [ [ ` K | 2 UXUXUX",
"UXUXUX;.F F ` ` _ _ J C C C C C C C S S C F _ ` ` _ A G ;.1 UXUX",
"UXUX1.V V V J ) F & % # # # # % % # # # # % V A ) G C C V 2.UXUX",
"UXy .._ Z.W.b.@.@.b.D.S.A.A.v.o.` ,.v.A.A.Q.A...@.[ _ ) ) ..z UX",
"UX~.g.g.{.xX0.N.I.M jXkXlXkXlXM m zXzXkXkXkXjXB x.g.N.N.l.l.[.UX",
"UXtXXX-X1X!.4 0 8 c.oXOXOX&Xc.3 8 4 G.OXoXOX@X9.3 x.3X3X3X3XhXUX",
"g 9X-X<XuX0Xe 9 (.iX3X3X1X7Xl 5.7Xj 9.1X1X1XuXfXI.w 5XiXuX3XgX0.",
"8.8X=X<XuXsXnXNX2X<X<X<X3XKXvX6X2XrXvX4X:X<X<X;X9XBX`.yXdXdXgXNX",
"T.,X=X,X,XaXDX].;X,X,X;X<XAXMX;X;XpXSX'.;X,X,X,XyXAXVX,XyX,XyXCX",
"P..X|.|..X$XlXF.}.}.}.}.}.R.P.K.}.L.zXF.}.}.}.}..XE.T.+X+X+X+XCX",
"c B.d.h.k.B.y u h.r.r.r.t.=.9 s.t.>.7 O.t.r.r.t.V.e s }.K.K. XE.",
"f a.T +.e.e.=.<  .w.Y L L { 2 , s.2 : U L T R h.s < q.e.u.e.M.n ",
"UXZ.K ' Y ' $.d q a / ^ H P a 7 9 8 | H ^ ^  .b 7 p y.#.y.y.J.UX",
"UX7.A C D D F ^ 4.N lXlXlXlXlXN n Y.lXlXlXlXkXB | A D F D J I.UX",
"UXr Q $ $ * = S S ( -.&.&.&.&.> * ! &.&.&.-.} - - = $ $ $ E g UX",
"UXUXh = = - D ~ - = $ O O O O @ $ @ O O O O % = E W - = % 2.UXUX",
"UXUXUX;.J F / ` ` ^ F C C D S C - D D C S H ~ _ ) ^ D ~ ;.UXUXUX",
"UXUXUX1 ;.' { { [ y.y.{ _ _ _ _ _ _ _ P { $.[ ] ] ' ' } 1 UXUXUX",
"UXUXUXUXo -.i.f.M.m.m.j.i.y.u.e.u.u.y.i.f.f.f.a.d.f.x.. UXUXUXUX",
"UXUXUXUXUXUX6 z.K.|.|. X|.|.}.B.}.}.}.}.|. X|.}.n.t UXUXUXUXUXUX",
"UXUXUXUXUXUXUXUX  i x.H.H.(.).qXwXwXwXwXwX].I.6 UXUXUXUXUXUXUXUX",
"UXUXUXUXUXUXUXUXUXUXUX0 k n zXcXBXZXZXZXBXUXUXUXUXUXUXUXUXUXUXUX",
"UXUXUXUXUXUXUXUXUXUXUXUXUXUXUXUXUXUXUXUXUXUXUXUXUXUXUXUXUXUXUXUX",
"UXUXUXUXUXUXUXUXUXUXUXUXUXUXUXUXUXUXUXUXUXUXUXUXUXUXUXUXUXUXUXUX",
"UXUXUXUXUXUXUXUXUXUXUXUXUXUXUXUXUXUXUXUXUXUXUXUXUXUXUXUXUXUXUXUX"
};
